<?xml version="1.0" encoding="utf-8"?>
<!-- Generator: Adobe Illustrator 24.0.1, SVG Export Plug-In . SVG Version: 6.00 Build 0)  -->
<svg version="1.1" id="Layer_1" xmlns="http://www.w3.org/2000/svg" xmlns:xlink="http://www.w3.org/1999/xlink" x="0px" y="0px"
	 width="360px" height="41.4px" viewBox="0 0 360 41.4" style="enable-background:new 0 0 360 41.4;" xml:space="preserve">
<style type="text/css">
	.st0{fill:#2060AD;}
</style>
<g>
	<g id="Dr_Sculpt_Fat_Cell_Sniper__1_" transform="translate(113 66.917)">
		<g id="Group_2_1_">
			<path id="Path_15_1_" class="st0" d="M-113-31.8v-34.7h20.4c10,0,17.2,6.9,17.2,17s-7.2,17.7-17.2,17.7L-113-31.8z M-92.6-39.2
				c5.5-0.1,9.8-4.6,9.7-10.1c-0.1-5.3-4.4-9.6-9.7-9.7h-13v19.8H-92.6z"/>
			<path id="Path_16_1_" class="st0" d="M-40-31.8l-8.4-9.4h-10.8v-6.3h13.5c3.6,0,5.6-2.1,5.6-5.8c0-3.7-2.1-5.6-5.6-5.6h-17.8
				v27.2h-7.4v-34.7h25.2c8.1,0,12.9,5,12.9,12.9c0,5.7-2.7,9.6-7,11.4l10.4,10.5L-40-31.8z"/>
			<path id="Path_17_1_" class="st0" d="M-23-31.4c-2.1,0-3.9-1.7-3.9-3.9c0-2.1,1.7-3.9,3.9-3.9c2.1,0,3.9,1.7,3.9,3.9
				C-19.1-33.1-20.8-31.4-23-31.4C-22.9-31.4-22.9-31.4-23-31.4z"/>
			<path id="Path_18_1_" class="st0" d="M0.8-31.8v-7.4H27c2.7,0,4.2-1.4,4.2-3.6c0-2.3-1.5-3.7-4.2-3.7H11.3c-6.8,0-11-4.1-11-10
				c0-5.7,3.9-10,11.1-10h25.1v7.4H11.4C9.5-59,8-57.5,8-55.7c0,1.8,1.5,3.3,3.3,3.3H27c7.3,0,11.2,3.2,11.2,10.2
				c0,6-3.7,10.4-11.2,10.4H0.8z"/>
			<path id="Path_19_1_" class="st0" d="M59-31.8c-9.9,0-17.1-7.6-17.1-17.7c0-10.2,7.3-17,17.1-17h19.1v7.4H59
				c-5.6,0-9.7,4.2-9.7,9.9c0,5.7,4.1,9.9,9.7,9.9h19.1v7.4H59z"/>
			<path id="Path_20_1_" class="st0" d="M112.9-66.5h7.3v19.4c0,10.7-5.4,15.8-19,15.8c-13.6,0-19-5.1-19-15.8v-19.4h7.7v19.4
				c0,6.2,2.7,8.5,11.6,8.5c8.9,0,11.5-2.3,11.5-8.5V-66.5z"/>
			<path id="Path_21_1_" class="st0" d="M125.1-31.8v-34.7h7.4v27.2H155v7.4L125.1-31.8z"/>
			<path id="Path_22_1_" class="st0" d="M170.6-41.1v-7.2h12.9c3.6,0,5.8-2.1,5.8-5.3c0-3.3-2.1-5.3-5.8-5.3h-17.3v27.2h-7.4v-34.7
				h24.7c8.2,0,13,4.9,13,12.6c0,7.6-4.8,12.8-13,12.8L170.6-41.1z"/>
			<path id="Path_23_1_" class="st0" d="M211.1-31.8V-59h-12.7v-7.4h32.9v7.4h-12.7v27.2L211.1-31.8z"/>
			<path id="Path_24_1_" class="st0" d="M240.8-54.7c-3.4,0-6.1-2.7-6.1-6.1c0-3.4,2.7-6.1,6.1-6.1c3.4,0,6.1,2.7,6.1,6.1
				c0,0,0,0,0,0C246.9-57.4,244.2-54.7,240.8-54.7C240.8-54.7,240.8-54.7,240.8-54.7z M240.8-65.8c-2.7,0-5,2.2-5,5c0,2.7,2.2,5,5,5
				c2.7,0,4.9-2.2,5-4.9C245.8-63.5,243.5-65.7,240.8-65.8L240.8-65.8z M242.6-58.6l-1.2-1.3h-1.1v-1h1.6c0.4,0.1,0.8-0.2,0.8-0.6
				c0-0.1,0-0.1,0-0.2c0-0.4-0.3-0.8-0.7-0.8c0,0-0.1,0-0.1,0h-2.7v3.9H238v-4.9h3.7c1,0,1.9,0.8,1.9,1.8c0,0.7-0.4,1.4-1,1.7
				l1.5,1.4L242.6-58.6z"/>
		</g>
	</g>
</g>
</svg>
