<?xml version="1.0" encoding="utf-8"?>
<!-- Generator: Adobe Illustrator 24.0.1, SVG Export Plug-In . SVG Version: 6.00 Build 0)  -->
<svg version="1.1" id="Layer_1" xmlns="http://www.w3.org/2000/svg" xmlns:xlink="http://www.w3.org/1999/xlink" x="0px" y="0px"
	 width="360px" height="29.1px" viewBox="0 0 360 29.1" style="enable-background:new 0 0 360 29.1;" xml:space="preserve">
<style type="text/css">
	.st0{fill:#2060AD;}
</style>
<g>
	<path class="st0" d="M4.9,27.8c-1.5-0.8-2.7-2-3.6-3.6C0.5,22.7,0,21,0,19.1c0-1.9,0.4-3.7,1.3-5.2c0.9-1.5,2.1-2.7,3.6-3.6
		c1.5-0.8,3.2-1.3,5-1.3c1.7,0,3.1,0.3,4.3,0.9c1.2,0.6,2.3,1.5,3.1,2.7l-2,1.1c-0.6-0.8-1.3-1.5-2.3-2c-1-0.5-2-0.8-3.1-0.8
		c-1.4,0-2.6,0.3-3.7,1c-1.1,0.7-2,1.6-2.7,2.9c-0.6,1.2-1,2.6-1,4.2s0.3,2.9,1,4.1c0.6,1.2,1.5,2.2,2.7,2.9c1.1,0.7,2.4,1,3.7,1
		c1.1,0,2.2-0.3,3.1-0.8c1-0.5,1.7-1.2,2.3-2l2.1,1.1c-1.9,2.4-4.4,3.7-7.5,3.7C8.1,29.1,6.4,28.7,4.9,27.8z"/>
	<path class="st0" d="M20.8,14c0.8-1.5,1.9-2.7,3.4-3.6c1.5-0.9,3.1-1.3,5-1.3c1.9,0,3.5,0.4,5,1.3c1.5,0.9,2.6,2.1,3.4,3.6
		c0.8,1.5,1.2,3.2,1.2,5.1s-0.4,3.6-1.2,5.1s-1.9,2.7-3.4,3.6c-1.4,0.9-3.1,1.3-5,1.3c-1.9,0-3.5-0.4-5-1.3
		c-1.5-0.9-2.6-2.1-3.4-3.6c-0.8-1.5-1.2-3.2-1.2-5.1S20,15.5,20.8,14z M35.4,14.9c-0.6-1.2-1.4-2.2-2.5-2.9c-1.1-0.7-2.3-1-3.7-1
		c-1.4,0-2.7,0.3-3.8,1c-1.1,0.7-1.9,1.6-2.5,2.9c-0.6,1.2-0.9,2.6-0.9,4.1c0,1.5,0.3,2.9,0.9,4.1c0.6,1.2,1.4,2.2,2.5,2.9
		c1.1,0.7,2.3,1,3.7,1c1.4,0,2.7-0.3,3.7-1c1.1-0.7,1.9-1.7,2.5-2.9s0.9-2.6,0.9-4.1C36.3,17.5,36,16.2,35.4,14.9z"/>
	<path class="st0" d="M43,14c0.8-1.5,1.9-2.7,3.4-3.6c1.5-0.9,3.1-1.3,5-1.3c1.9,0,3.5,0.4,5,1.3c1.5,0.9,2.6,2.1,3.4,3.6
		c0.8,1.5,1.2,3.2,1.2,5.1s-0.4,3.6-1.2,5.1s-1.9,2.7-3.4,3.6c-1.4,0.9-3.1,1.3-5,1.3c-1.9,0-3.5-0.4-5-1.3
		c-1.5-0.9-2.6-2.1-3.4-3.6c-0.8-1.5-1.2-3.2-1.2-5.1S42.2,15.5,43,14z M57.6,14.9c-0.6-1.2-1.4-2.2-2.5-2.9c-1.1-0.7-2.3-1-3.7-1
		c-1.4,0-2.7,0.3-3.8,1c-1.1,0.7-1.9,1.6-2.5,2.9c-0.6,1.2-0.9,2.6-0.9,4.1c0,1.5,0.3,2.9,0.9,4.1c0.6,1.2,1.4,2.2,2.5,2.9
		c1.1,0.7,2.3,1,3.7,1c1.4,0,2.7-0.3,3.7-1c1.1-0.7,1.9-1.7,2.5-2.9s0.9-2.6,0.9-4.1C58.5,17.5,58.2,16.2,57.6,14.9z"/>
	<path class="st0" d="M64.8,9.4h2.4v17.4h9v2H64.8V9.4z"/>
	<path class="st0" d="M79.8,24.4c0.7,0.8,1.6,1.5,2.6,2c1,0.5,2.2,0.8,3.5,0.8c1.6,0,2.7-0.4,3.5-1.1c0.7-0.7,1.1-1.6,1.1-2.6
		c0-0.8-0.2-1.4-0.7-1.9c-0.4-0.5-1-0.9-1.6-1.2c-0.6-0.3-1.5-0.6-2.6-0.9c-1.4-0.4-2.6-0.7-3.4-1c-0.9-0.3-1.6-0.8-2.2-1.5
		c-0.6-0.7-0.9-1.6-0.9-2.7c0-1,0.3-1.9,0.9-2.7c0.6-0.8,1.4-1.4,2.4-1.8c1-0.4,2.1-0.7,3.4-0.7c2.9,0,5.2,0.8,6.9,2.5l-1.5,1.8
		c-0.7-0.8-1.5-1.4-2.5-1.7s-2-0.6-3.1-0.6c-1.2,0-2.1,0.3-2.9,0.9s-1.1,1.4-1.1,2.3c0,0.6,0.2,1.1,0.6,1.5c0.4,0.4,0.9,0.7,1.5,1
		c0.6,0.2,1.4,0.5,2.6,0.8c1.4,0.4,2.6,0.8,3.5,1.1s1.7,1,2.3,1.7c0.6,0.8,1,1.8,1,3c0,1-0.2,1.9-0.7,2.8c-0.5,0.9-1.3,1.6-2.3,2.1
		c-1.1,0.5-2.4,0.8-4.1,0.8c-1.6,0-3-0.3-4.3-0.8s-2.3-1.2-3.1-2.1L79.8,24.4z"/>
	<path class="st0" d="M100.6,27.8c-1.5-0.8-2.7-2-3.6-3.6c-0.9-1.5-1.3-3.3-1.3-5.2c0-1.9,0.4-3.7,1.3-5.2c0.9-1.5,2.1-2.7,3.6-3.6
		c1.5-0.8,3.2-1.3,5-1.3c1.7,0,3.1,0.3,4.3,0.9c1.2,0.6,2.3,1.5,3.1,2.7l-2,1.1c-0.6-0.8-1.3-1.5-2.3-2c-1-0.5-2-0.8-3.1-0.8
		c-1.4,0-2.6,0.3-3.7,1c-1.1,0.7-2,1.6-2.7,2.9c-0.6,1.2-1,2.6-1,4.2s0.3,2.9,1,4.1c0.6,1.2,1.5,2.2,2.7,2.9c1.1,0.7,2.4,1,3.7,1
		c1.1,0,2.2-0.3,3.1-0.8c1-0.5,1.7-1.2,2.3-2l2.1,1.1c-1.9,2.4-4.4,3.7-7.5,3.7C103.8,29.1,102.2,28.7,100.6,27.8z"/>
	<path class="st0" d="M116.2,9.4h2.4v11.9c0,1.8,0.5,3.2,1.4,4.3c0.9,1,2.3,1.6,4.1,1.6s3.1-0.5,4.1-1.6c0.9-1,1.4-2.5,1.4-4.3V9.4
		h2.4v11.8c0,2.5-0.7,4.4-2,5.8c-1.3,1.4-3.3,2.1-5.9,2.1s-4.5-0.7-5.9-2.1c-1.3-1.4-2-3.3-2-5.8V9.4z"/>
	<path class="st0" d="M136.5,9.4h2.4v17.4h9v2h-11.4V9.4z"/>
	<path class="st0" d="M151.3,9.4h7.8c1.3,0,2.3,0.3,3.3,0.8c0.9,0.5,1.6,1.2,2.1,2.1s0.7,1.9,0.7,2.9c0,1.1-0.2,2-0.7,2.9
		c-0.5,0.9-1.2,1.6-2.1,2.1c-0.9,0.5-2,0.8-3.2,0.8h-5.4v7.7h-2.4V9.4z M161.5,12.4c-0.7-0.7-1.6-1.1-2.8-1.1h-5.1v7.7h5.1
		c1.1,0,2.1-0.4,2.8-1.1s1.1-1.6,1.1-2.8S162.2,13.1,161.5,12.4z"/>
	<path class="st0" d="M173.1,11.3h-6.1v-2h14.7v2h-6.1v17.4h-2.4V11.3z"/>
	<path class="st0" d="M184.8,9.4h2.4v19.3h-2.4V9.4z"/>
	<path class="st0" d="M194.1,13.1v15.6h-2.4V9.4h2.5l11.1,15.3V9.4h2.4v19.3h-2.3L194.1,13.1z"/>
	<path class="st0" d="M212.8,13.9c0.9-1.5,2.1-2.7,3.6-3.5c1.5-0.8,3.2-1.3,5-1.3c3.1,0,5.6,1.2,7.5,3.5l-1.9,1.2
		c-0.6-0.8-1.4-1.5-2.4-1.9c-1-0.5-2.1-0.7-3.2-0.7c-1.4,0-2.7,0.3-3.8,1c-1.1,0.7-2,1.6-2.7,2.9s-1,2.6-1,4.1c0,1.5,0.3,2.9,1,4.1
		c0.6,1.2,1.5,2.2,2.7,2.9s2.4,1,3.8,1c1.1,0,2.1-0.2,3-0.7s1.7-1,2.2-1.5v-4.2H220v-2h9v7c-0.9,1-2,1.9-3.3,2.5
		c-1.3,0.6-2.7,0.9-4.2,0.9c-1.8,0-3.5-0.4-5-1.3s-2.7-2-3.6-3.6c-0.9-1.5-1.3-3.3-1.3-5.2C211.5,17.1,211.9,15.4,212.8,13.9z"/>
	<path class="st0" d="M244.5,27.8c-1.5-0.8-2.7-2-3.6-3.6c-0.9-1.5-1.3-3.3-1.3-5.2c0-1.9,0.4-3.7,1.3-5.2s2.1-2.7,3.6-3.6
		c1.5-0.8,3.2-1.3,5-1.3c1.7,0,3.1,0.3,4.3,0.9c1.2,0.6,2.3,1.5,3.1,2.7l-2,1.1c-0.6-0.8-1.3-1.5-2.3-2c-1-0.5-2-0.8-3.1-0.8
		c-1.4,0-2.6,0.3-3.7,1c-1.1,0.7-2,1.6-2.7,2.9c-0.6,1.2-1,2.6-1,4.2s0.3,2.9,1,4.1s1.5,2.2,2.7,2.9c1.1,0.7,2.4,1,3.7,1
		c1.1,0,2.2-0.3,3.1-0.8c1-0.5,1.7-1.2,2.3-2l2.1,1.1c-1.9,2.4-4.4,3.7-7.5,3.7C247.7,29.1,246,28.7,244.5,27.8z"/>
	<path class="st0" d="M260,9.4h12.7v2h-10.3v6.4h10.1v2h-10.1v7h10.3v2H260V9.4z"/>
	<path class="st0" d="M278.9,13.1v15.6h-2.4V9.4h2.5l11.1,15.3V9.4h2.4v19.3h-2.3L278.9,13.1z"/>
	<path class="st0" d="M301.8,11.3h-6.1v-2h14.7v2h-6.1v17.4h-2.4V11.3z"/>
	<path class="st0" d="M313.6,9.4h12.7v2H316v6.4h10.1v2H316v7h10.3v2h-12.7V9.4z"/>
	<path class="st0" d="M336.4,21h-3.9v7.7h-2.4V9.4h7.8c1.2,0,2.2,0.2,3.1,0.7c0.9,0.5,1.6,1.2,2.1,2c0.5,0.9,0.8,1.9,0.8,3.1
		c0,1.1-0.2,2.1-0.7,2.9c-0.5,0.8-1.1,1.5-1.8,1.9c-0.8,0.5-1.6,0.7-2.5,0.8l5.2,7.9h-2.8L336.4,21z M340.4,12.4
		c-0.7-0.7-1.6-1.1-2.8-1.1h-5.1v7.7h5.1c1.1,0,2.1-0.4,2.8-1.1c0.7-0.7,1.1-1.7,1.1-2.8C341.4,14.1,341.1,13.1,340.4,12.4z"/>
</g>
</svg>
