<?xml version="1.0" encoding="utf-8"?>
<!-- Generator: Adobe Illustrator 24.0.1, SVG Export Plug-In . SVG Version: 6.00 Build 0)  -->
<svg version="1.1" id="Layer_1" xmlns="http://www.w3.org/2000/svg" xmlns:xlink="http://www.w3.org/1999/xlink" x="0px" y="0px"
	 width="360px" height="29.1px" viewBox="0 0 360 29.1" style="enable-background:new 0 0 360 29.1;" xml:space="preserve">
<style type="text/css">
	.st0{enable-background:new    ;}
	.st1{fill:#2060AD;}
</style>
<g>
	<g class="st0">
		<path class="st1" d="M0,4.9h10.6c2,0,3.7,0.6,4.8,1.7c1.2,1.1,1.8,2.5,1.8,4.3c0,1.4-0.4,2.6-1.2,3.6c-0.8,1-1.8,1.6-2.9,1.8
			c0.8,0.1,1.6,0.5,2.3,1c0.7,0.6,1.3,1.3,1.7,2.1c0.4,0.9,0.6,1.8,0.6,2.7c0,1.9-0.6,3.5-1.8,4.7s-2.9,1.8-5,1.8H0V4.9z M10.1,15.2
			c1.3,0,2.3-0.4,3-1.1c0.7-0.7,1.1-1.7,1.1-2.8c0-1.1-0.4-2.1-1.1-2.8c-0.7-0.7-1.7-1.1-3-1.1H2.9v7.9H10.1z M10.2,26.2
			c1.4,0,2.5-0.4,3.2-1.2c0.8-0.8,1.2-1.8,1.2-3.1c0-1.2-0.4-2.2-1.2-3.1c-0.8-0.8-1.9-1.2-3.3-1.2H2.9v8.6H10.2z"/>
		<path class="st1" d="M23.9,10.5c1-1.9,2.4-3.3,4.2-4.4c1.8-1.1,3.8-1.6,6.1-1.6c2.3,0,4.3,0.5,6.1,1.6c1.8,1.1,3.2,2.5,4.2,4.4
			c1,1.9,1.5,4,1.5,6.3s-0.5,4.4-1.5,6.3c-1,1.9-2.4,3.3-4.2,4.4c-1.8,1.1-3.8,1.6-6.1,1.6c-2.3,0-4.3-0.5-6.1-1.6
			c-1.8-1.1-3.2-2.5-4.2-4.4c-1-1.9-1.5-4-1.5-6.3S22.9,12.4,23.9,10.5z M41.8,11.7c-0.7-1.5-1.7-2.7-3.1-3.5
			c-1.3-0.8-2.8-1.3-4.6-1.3c-1.8,0-3.3,0.4-4.6,1.3c-1.3,0.8-2.3,2-3,3.5c-0.7,1.5-1.1,3.2-1.1,5.1c0,1.9,0.4,3.6,1.1,5.1
			c0.7,1.5,1.7,2.7,3.1,3.5c1.3,0.8,2.9,1.3,4.6,1.3c1.7,0,3.3-0.4,4.6-1.3c1.3-0.8,2.3-2,3.1-3.5c0.7-1.5,1.1-3.2,1.1-5.1
			C42.9,14.9,42.6,13.2,41.8,11.7z"/>
		<path class="st1" d="M51.7,4.9h8.1c2.4,0,4.5,0.5,6.4,1.5c1.8,1,3.3,2.5,4.3,4.3c1,1.8,1.5,3.8,1.5,6.1c0,2.3-0.5,4.3-1.5,6.1
			S68,26,66.1,27.1c-1.8,1-4,1.5-6.4,1.5h-8.1V4.9z M59.8,26.2c1.9,0,3.5-0.4,4.9-1.3c1.4-0.8,2.4-2,3.1-3.4c0.7-1.4,1.1-3,1.1-4.8
			c0-1.8-0.4-3.4-1.1-4.8c-0.7-1.4-1.8-2.6-3.1-3.4c-1.4-0.8-3-1.3-4.9-1.3h-5.2v18.9H59.8z"/>
		<path class="st1" d="M83.1,18.6L73.7,4.9h3.4l7.4,11l7.4-11h3.4L86,18.6v10h-2.9V18.6z"/>
		<path class="st1" d="M114.7,27.5c-1.8-1-3.3-2.5-4.4-4.4c-1.1-1.9-1.6-4-1.6-6.4c0-2.4,0.5-4.5,1.6-6.4c1.1-1.9,2.5-3.3,4.4-4.4
			c1.8-1,3.9-1.5,6.1-1.5c2,0,3.8,0.4,5.3,1.2c1.5,0.8,2.8,1.9,3.8,3.3l-2.5,1.4c-0.7-1-1.6-1.8-2.8-2.5c-1.2-0.6-2.4-1-3.8-1
			c-1.7,0-3.2,0.4-4.6,1.3c-1.4,0.8-2.5,2-3.3,3.5c-0.8,1.5-1.2,3.2-1.2,5.1c0,1.9,0.4,3.6,1.2,5.1c0.8,1.5,1.9,2.7,3.3,3.5
			c1.4,0.8,2.9,1.3,4.6,1.3c1.4,0,2.6-0.3,3.8-0.9c1.2-0.6,2.1-1.5,2.8-2.5l2.5,1.4c-2.3,3-5.3,4.5-9.1,4.5
			C118.6,29.1,116.6,28.6,114.7,27.5z"/>
		<path class="st1" d="M135.3,10.5c1-1.9,2.4-3.3,4.2-4.4c1.8-1.1,3.8-1.6,6.1-1.6c2.3,0,4.3,0.5,6.1,1.6c1.8,1.1,3.2,2.5,4.2,4.4
			c1,1.9,1.5,4,1.5,6.3s-0.5,4.4-1.5,6.3c-1,1.9-2.4,3.3-4.2,4.4c-1.8,1.1-3.8,1.6-6.1,1.6c-2.3,0-4.3-0.5-6.1-1.6
			c-1.8-1.1-3.2-2.5-4.2-4.4c-1-1.9-1.5-4-1.5-6.3S134.3,12.4,135.3,10.5z M153.2,11.7c-0.7-1.5-1.7-2.7-3.1-3.5
			c-1.3-0.8-2.8-1.3-4.6-1.3c-1.8,0-3.3,0.4-4.6,1.3c-1.3,0.8-2.3,2-3,3.5c-0.7,1.5-1.1,3.2-1.1,5.1c0,1.9,0.4,3.6,1.1,5.1
			c0.7,1.5,1.7,2.7,3.1,3.5c1.3,0.8,2.9,1.3,4.6,1.3c1.7,0,3.3-0.4,4.6-1.3c1.3-0.8,2.3-2,3.1-3.5c0.7-1.5,1.1-3.2,1.1-5.1
			C154.3,14.9,153.9,13.2,153.2,11.7z"/>
		<path class="st1" d="M166,9.5v19.1H163V4.9h3l13.6,18.7V4.9h2.9v23.7h-2.8L166,9.5z"/>
		<path class="st1" d="M195.1,7.3h-7.5V4.9h18v2.4H198v21.3h-2.9V7.3z"/>
		<path class="st1" d="M210.1,10.5c1-1.9,2.4-3.3,4.2-4.4c1.8-1.1,3.8-1.6,6.1-1.6c2.3,0,4.3,0.5,6.1,1.6c1.8,1.1,3.2,2.5,4.2,4.4
			c1,1.9,1.5,4,1.5,6.3s-0.5,4.4-1.5,6.3c-1,1.9-2.4,3.3-4.2,4.4c-1.8,1.1-3.8,1.6-6.1,1.6c-2.3,0-4.3-0.5-6.1-1.6
			c-1.8-1.1-3.2-2.5-4.2-4.4c-1-1.9-1.5-4-1.5-6.3S209.1,12.4,210.1,10.5z M228,11.7c-0.7-1.5-1.7-2.7-3.1-3.5
			c-1.3-0.8-2.8-1.3-4.6-1.3c-1.8,0-3.3,0.4-4.6,1.3c-1.3,0.8-2.3,2-3,3.5c-0.7,1.5-1.1,3.2-1.1,5.1c0,1.9,0.4,3.6,1.1,5.1
			c0.7,1.5,1.7,2.7,3.1,3.5c1.3,0.8,2.9,1.3,4.6,1.3s3.3-0.4,4.6-1.3c1.3-0.8,2.3-2,3.1-3.5c0.7-1.5,1.1-3.2,1.1-5.1
			C229.1,14.9,228.7,13.2,228,11.7z"/>
		<path class="st1" d="M237.8,4.9h2.9v14.6c0,2.2,0.6,4,1.7,5.2c1.2,1.3,2.8,1.9,5,1.9c2.2,0,3.8-0.6,5-1.9c1.2-1.3,1.7-3,1.7-5.2
			V4.9h2.9v14.5c0,3-0.8,5.4-2.5,7.1c-1.6,1.7-4,2.6-7.2,2.6c-3.1,0-5.5-0.9-7.2-2.6c-1.6-1.7-2.5-4.1-2.5-7.1V4.9z"/>
		<path class="st1" d="M271.4,19.2h-4.7v9.4h-2.9V4.9h9.5c1.4,0,2.7,0.3,3.9,0.9c1.1,0.6,2,1.4,2.6,2.5s0.9,2.3,0.9,3.8
			c0,1.4-0.3,2.6-0.8,3.6c-0.6,1-1.3,1.8-2.2,2.3c-0.9,0.6-2,0.9-3.1,1l6.4,9.7h-3.5L271.4,19.2z M276.3,8.7c-0.9-0.9-2-1.3-3.4-1.3
			h-6.2v9.4h6.2c1.4,0,2.5-0.4,3.4-1.3c0.9-0.9,1.3-2,1.3-3.4C277.7,10.7,277.2,9.5,276.3,8.7z"/>
		<path class="st1" d="M286.4,4.9h2.9v23.7h-2.9V4.9z"/>
		<path class="st1" d="M298.9,9.5v19.1H296V4.9h3l13.6,18.7V4.9h2.9v23.7h-2.8L298.9,9.5z"/>
		<path class="st1" d="M322.9,10.4c1.1-1.9,2.5-3.3,4.4-4.3c1.9-1,3.9-1.5,6.2-1.5c3.7,0,6.8,1.4,9.2,4.2l-2.3,1.5
			c-0.8-1-1.7-1.8-3-2.4c-1.2-0.6-2.5-0.9-3.9-0.9c-1.7,0-3.3,0.4-4.7,1.3c-1.4,0.8-2.5,2-3.3,3.5c-0.8,1.5-1.2,3.2-1.2,5.1
			c0,1.9,0.4,3.6,1.2,5.1c0.8,1.5,1.9,2.7,3.3,3.5c1.4,0.8,2.9,1.3,4.7,1.3c1.3,0,2.5-0.3,3.6-0.8c1.1-0.5,2-1.2,2.7-1.9v-5.1h-8.1
			v-2.4h11.1V25c-1.1,1.3-2.5,2.3-4.1,3c-1.6,0.7-3.3,1.1-5.2,1.1c-2.2,0-4.3-0.5-6.2-1.5c-1.9-1-3.3-2.5-4.4-4.4
			c-1.1-1.9-1.6-4-1.6-6.4C321.2,14.4,321.8,12.3,322.9,10.4z"/>
	</g>
</g>
</svg>
